<svg width="877" height="502" viewBox="0 0 877 502" fill="none" xmlns="http://www.w3.org/2000/svg">
<mask id="path-1-inside-1_59_215" fill="white">
<rect x="8" width="862.401" height="469" rx="3"/>
</mask>
<rect x="8" width="862.401" height="469" rx="3" stroke="#3E3E3E" stroke-width="30" mask="url(#path-1-inside-1_59_215)"/>
<rect x="413" y="4" width="52" height="21" rx="5" fill="#3E3E3E"/>
<circle cx="439" cy="17" r="5" fill="#D9D9D9"/>
<path d="M852.121 452.122H779.556V447.848C779.556 447.736 779.529 447.626 779.477 447.523C779.425 447.42 779.348 447.327 779.252 447.248C779.156 447.17 779.041 447.107 778.916 447.065C778.79 447.022 778.655 447 778.519 447H753.639C753.503 447 753.369 447.022 753.243 447.065C753.117 447.107 753.003 447.17 752.906 447.248C752.81 447.327 752.734 447.42 752.682 447.523C752.63 447.626 752.603 447.736 752.603 447.848V452.122H737.053V447.848C737.053 447.736 737.026 447.626 736.974 447.523C736.922 447.42 736.846 447.327 736.75 447.248C736.653 447.17 736.539 447.107 736.413 447.065C736.287 447.022 736.153 447 736.017 447H711.137C711.001 447 710.866 447.022 710.74 447.065C710.615 447.107 710.5 447.17 710.404 447.248C710.308 447.327 710.231 447.42 710.179 447.523C710.127 447.626 710.101 447.736 710.101 447.848V452.122H694.551V447.848C694.551 447.736 694.524 447.626 694.472 447.523C694.42 447.42 694.344 447.327 694.247 447.248C694.151 447.17 694.037 447.107 693.911 447.065C693.785 447.022 693.65 447 693.514 447H668.635C668.499 447 668.364 447.022 668.238 447.065C668.112 447.107 667.998 447.17 667.902 447.248C667.805 447.327 667.729 447.42 667.677 447.523C667.625 447.626 667.598 447.736 667.598 447.848V452.122H652.048V447.848C652.048 447.736 652.022 447.626 651.97 447.523C651.917 447.42 651.841 447.327 651.745 447.248C651.649 447.17 651.534 447.107 651.409 447.065C651.283 447.022 651.148 447 651.012 447H626.132C625.996 447 625.861 447.022 625.736 447.065C625.61 447.107 625.496 447.17 625.399 447.248C625.303 447.327 625.227 447.42 625.175 447.523C625.122 447.626 625.096 447.736 625.096 447.848V452.122H609.546V447.848C609.546 447.736 609.519 447.626 609.467 447.523C609.415 447.42 609.339 447.327 609.242 447.248C609.146 447.17 609.032 447.107 608.906 447.065C608.78 447.022 608.646 447 608.509 447H583.63C583.494 447 583.359 447.022 583.233 447.065C583.108 447.107 582.993 447.17 582.897 447.248C582.801 447.327 582.724 447.42 582.672 447.523C582.62 447.626 582.593 447.736 582.593 447.848V452.122H567.044V447.848C567.044 447.736 567.017 447.626 566.965 447.523C566.913 447.42 566.836 447.327 566.74 447.248C566.644 447.17 566.53 447.107 566.404 447.065C566.278 447.022 566.143 447 566.007 447H541.128C540.992 447 540.857 447.022 540.731 447.065C540.605 447.107 540.491 447.17 540.395 447.248C540.298 447.327 540.222 447.42 540.17 447.523C540.118 447.626 540.091 447.736 540.091 447.848V452.122H524.541V447.848C524.541 447.736 524.515 447.626 524.462 447.523C524.41 447.42 524.334 447.327 524.238 447.248C524.141 447.17 524.027 447.107 523.901 447.065C523.776 447.022 523.641 447 523.505 447H328.616C328.48 447 328.345 447.022 328.219 447.065C328.093 447.107 327.979 447.17 327.883 447.248C327.787 447.327 327.71 447.42 327.658 447.523C327.606 447.626 327.579 447.736 327.579 447.848V452.122H312.03V447.848C312.03 447.736 312.003 447.626 311.951 447.523C311.899 447.42 311.822 447.327 311.726 447.248C311.63 447.17 311.515 447.107 311.39 447.065C311.264 447.022 311.129 447 310.993 447H286.113C285.977 447 285.843 447.022 285.717 447.065C285.591 447.107 285.477 447.17 285.38 447.248C285.284 447.327 285.208 447.42 285.156 447.523C285.104 447.626 285.077 447.736 285.077 447.848V452.122H269.527V447.848C269.527 447.736 269.5 447.626 269.448 447.523C269.396 447.42 269.32 447.327 269.224 447.248C269.127 447.17 269.013 447.107 268.887 447.065C268.761 447.022 268.627 447 268.491 447H243.611C243.475 447 243.34 447.022 243.214 447.065C243.089 447.107 242.974 447.17 242.878 447.248C242.782 447.327 242.705 447.42 242.653 447.523C242.601 447.626 242.574 447.736 242.574 447.848V452.122H227.025V447.848C227.025 447.736 226.998 447.626 226.946 447.523C226.894 447.42 226.817 447.327 226.721 447.248C226.625 447.17 226.511 447.107 226.385 447.065C226.259 447.022 226.124 447 225.988 447H201.109C200.973 447 200.838 447.022 200.712 447.065C200.586 447.107 200.472 447.17 200.376 447.248C200.279 447.327 200.203 447.42 200.151 447.523C200.099 447.626 200.072 447.736 200.072 447.848V452.122H184.522V447.848C184.523 447.736 184.496 447.626 184.444 447.523C184.392 447.42 184.315 447.327 184.219 447.248C184.123 447.17 184.008 447.107 183.883 447.065C183.757 447.022 183.622 447 183.486 447H158.606C158.47 447 158.335 447.022 158.21 447.065C158.084 447.107 157.97 447.17 157.873 447.248C157.777 447.327 157.701 447.42 157.649 447.523C157.597 447.626 157.57 447.736 157.57 447.848V452.122H142.02V447.848C142.02 447.736 141.993 447.626 141.941 447.523C141.889 447.42 141.813 447.327 141.716 447.248C141.62 447.17 141.506 447.107 141.38 447.065C141.254 447.022 141.12 447 140.983 447H116.104C115.968 447 115.833 447.022 115.707 447.065C115.582 447.107 115.467 447.17 115.371 447.248C115.275 447.327 115.198 447.42 115.146 447.523C115.094 447.626 115.067 447.736 115.067 447.848V452.122H99.5177V447.848C99.5177 447.736 99.4909 447.626 99.4388 447.523C99.3867 447.42 99.3104 447.327 99.2141 447.248C99.1179 447.17 99.0036 447.107 98.8778 447.065C98.752 447.022 98.6172 447 98.4811 447H73.6017C73.4655 447 73.3307 447.022 73.2049 447.065C73.0792 447.107 72.9649 447.17 72.8686 447.248C72.7724 447.327 72.696 447.42 72.6439 447.523C72.5918 447.626 72.565 447.736 72.565 447.848V452.122H24.8794C18.281 452.122 11.9528 454.265 7.28703 458.079C2.62123 461.894 6.28634e-06 467.068 0 472.462V481.66C1.8859e-05 487.054 2.62125 492.228 7.28704 496.043C11.9528 499.857 18.281 502 24.8794 502H852.121C858.719 502 865.047 499.857 869.713 496.043C874.379 492.228 877 487.054 877 481.66V472.462C877 467.068 874.379 461.894 869.713 458.079C865.047 454.265 858.719 452.122 852.121 452.122Z" fill="#3E3E3E"/>
<g clip-path="url(#clip0_59_215)">
<path d="M842 158.696V263.3C841.997 266.136 840.868 268.856 838.86 270.862C836.853 272.868 834.132 273.997 831.294 274H751.011L751.757 273.057L841.056 159.894L842 158.696Z" fill="#838383"/>
<path d="M642.786 121.85H550.599C549.843 121.85 549.119 122.15 548.585 122.683C548.051 123.217 547.75 123.941 547.75 124.696C547.75 125.451 548.051 126.175 548.585 126.709C549.119 127.243 549.843 127.543 550.599 127.543H642.786C643.541 127.543 644.265 127.243 644.8 126.709C645.334 126.175 645.634 125.451 645.634 124.696C645.634 123.941 645.334 123.217 644.8 122.683C644.265 122.15 643.541 121.85 642.786 121.85Z" fill="white"/>
<path d="M579.181 105.889H550.599C549.843 105.889 549.119 106.189 548.585 106.723C548.051 107.256 547.75 107.98 547.75 108.735C547.75 109.49 548.051 110.214 548.585 110.748C549.119 111.282 549.843 111.582 550.599 111.582H579.181C579.937 111.582 580.661 111.282 581.195 110.748C581.73 110.214 582.03 109.49 582.03 108.735C582.03 107.98 581.73 107.256 581.195 106.723C580.661 106.189 579.937 105.889 579.181 105.889H579.181Z" fill="white"/>
<path d="M831.293 25H525.707C522.868 25.0034 520.147 26.1319 518.14 28.1378C516.133 30.1438 515.003 32.8635 515 35.7004V263.3C515.003 266.136 516.133 268.856 518.14 270.862C520.147 272.868 522.868 273.997 525.707 274H831.293C834.132 273.997 836.853 272.868 838.86 270.862C840.867 268.856 841.997 266.136 842 263.3V35.7004C841.997 32.8635 840.867 30.1438 838.86 28.1378C836.853 26.1319 834.132 25.0034 831.293 25ZM841.056 263.3C841.056 264.581 840.804 265.85 840.313 267.034C839.823 268.217 839.103 269.293 838.197 270.199C837.29 271.105 836.214 271.824 835.03 272.314C833.845 272.804 832.576 273.057 831.293 273.057H525.707C523.117 273.057 520.634 272.029 518.803 270.199C516.972 268.369 515.944 265.887 515.944 263.3V99.3584C515.944 79.8874 523.683 61.214 537.459 47.446C551.235 33.678 569.919 25.9432 589.401 25.9432H831.293C832.576 25.9432 833.845 26.1956 835.03 26.6859C836.214 27.1763 837.29 27.895 838.197 28.801C839.103 29.707 839.823 30.7827 840.313 31.9665C840.804 33.1503 841.056 34.4191 841.056 35.7004V263.3Z" fill="#838383"/>
<path d="M812.221 66.155H544.803C544.678 66.155 544.557 66.1054 544.469 66.0169C544.381 65.9285 544.331 65.8085 544.331 65.6834C544.331 65.5584 544.381 65.4384 544.469 65.35C544.557 65.2615 544.678 65.2119 544.803 65.2119H812.221C812.346 65.2119 812.466 65.2615 812.555 65.35C812.643 65.4384 812.693 65.5584 812.693 65.6834C812.693 65.8085 812.643 65.9285 812.555 66.0169C812.466 66.1054 812.346 66.155 812.221 66.155Z" fill="#E6E6E6"/>
<path d="M558.182 51.9977C560.386 51.9977 562.173 50.1724 562.173 47.9207C562.173 45.6691 560.386 43.8438 558.182 43.8438C555.978 43.8438 554.192 45.6691 554.192 47.9207C554.192 50.1724 555.978 51.9977 558.182 51.9977Z" fill="#E6E6E6"/>
<path d="M571.967 51.9977C574.171 51.9977 575.958 50.1724 575.958 47.9207C575.958 45.6691 574.171 43.8438 571.967 43.8438C569.763 43.8438 567.977 45.6691 567.977 47.9207C567.977 50.1724 569.763 51.9977 571.967 51.9977Z" fill="#E6E6E6"/>
<path d="M585.752 51.9977C587.956 51.9977 589.742 50.1724 589.742 47.9207C589.742 45.6691 587.956 43.8438 585.752 43.8438C583.548 43.8438 581.762 45.6691 581.762 47.9207C581.762 50.1724 583.548 51.9977 585.752 51.9977Z" fill="#E6E6E6"/>
<path d="M601.47 51.143C601.407 51.1431 601.345 51.1306 601.287 51.1062C601.229 51.0819 601.177 51.0461 601.133 51.0012L598.441 48.2504C598.354 48.1623 598.306 48.0439 598.306 47.9206C598.306 47.7973 598.354 47.679 598.441 47.5909L601.133 44.8403C601.176 44.7954 601.228 44.7594 601.285 44.7345C601.342 44.7096 601.404 44.6962 601.466 44.6953C601.528 44.6943 601.59 44.7056 601.648 44.7287C601.706 44.7518 601.759 44.7861 601.803 44.8296C601.848 44.8732 601.884 44.9252 601.908 44.9826C601.932 45.0399 601.945 45.1016 601.945 45.1639C601.946 45.2262 601.934 45.288 601.91 45.3456C601.886 45.4033 601.852 45.4557 601.808 45.4998L599.438 47.9206L601.808 50.3417C601.873 50.408 601.916 50.4921 601.934 50.5833C601.951 50.6745 601.941 50.7687 601.905 50.8543C601.869 50.9399 601.809 51.0129 601.731 51.0642C601.654 51.1156 601.563 51.143 601.47 51.143Z" fill="#E6E6E6"/>
<path d="M605.995 51.143C605.902 51.143 605.811 51.1156 605.734 51.0643C605.656 51.0129 605.596 50.9399 605.56 50.8543C605.524 50.7688 605.514 50.6745 605.531 50.5833C605.549 50.4921 605.593 50.4081 605.657 50.3417L608.027 47.9206L605.657 45.4998C605.571 45.4101 605.524 45.2901 605.526 45.1659C605.528 45.0416 605.579 44.9231 605.668 44.8362C605.757 44.7493 605.877 44.701 606.001 44.7018C606.125 44.7026 606.244 44.7523 606.332 44.8403L609.024 47.5909C609.111 47.679 609.159 47.7974 609.159 47.9206C609.159 48.0439 609.111 48.1623 609.024 48.2504L606.332 51.0012C606.288 51.0462 606.236 51.0819 606.178 51.1062C606.12 51.1306 606.058 51.1431 605.995 51.143Z" fill="#E6E6E6"/>
<path d="M788.374 44.3158H783.367C783.232 44.3158 783.097 44.3424 782.972 44.3943C782.846 44.4462 782.733 44.5223 782.637 44.6182C782.541 44.7141 782.464 44.828 782.413 44.9533C782.361 45.0786 782.334 45.2129 782.334 45.3486V50.3569C782.334 50.4925 782.361 50.6268 782.413 50.7521C782.464 50.8775 782.541 50.9913 782.637 51.0873C782.733 51.1832 782.846 51.2592 782.972 51.3111C783.097 51.363 783.232 51.3897 783.367 51.3897H788.374C788.648 51.3899 788.912 51.2813 789.106 51.0877C789.301 50.8941 789.411 50.6313 789.412 50.3569V45.3486C789.411 45.0741 789.301 44.8113 789.106 44.6177C788.912 44.4241 788.648 44.3155 788.374 44.3158Z" fill="#E6E6E6"/>
<path d="M776.105 44.3158H771.099C770.963 44.3158 770.829 44.3424 770.704 44.3943C770.578 44.4462 770.464 44.5223 770.368 44.6182C770.272 44.7141 770.196 44.828 770.144 44.9533C770.092 45.0786 770.066 45.2129 770.066 45.3486V50.3569C770.066 50.4925 770.092 50.6268 770.144 50.7521C770.196 50.8775 770.272 50.9913 770.368 51.0873C770.464 51.1832 770.578 51.2592 770.704 51.3111C770.829 51.363 770.963 51.3897 771.099 51.3897H776.105C776.38 51.3899 776.644 51.2813 776.838 51.0877C777.033 50.8941 777.143 50.6313 777.144 50.3569V45.3486C777.143 45.0741 777.033 44.8113 776.838 44.6177C776.644 44.4241 776.38 44.3155 776.105 44.3158Z" fill="#E6E6E6"/>
<path d="M799.934 44.5516H794.928C794.792 44.5516 794.658 44.5783 794.532 44.6302C794.407 44.6821 794.293 44.7581 794.197 44.854C794.101 44.9499 794.025 45.0638 793.973 45.1891C793.921 45.3145 793.894 45.4488 793.895 45.5844V50.5927C793.894 50.7284 793.921 50.8627 793.973 50.988C794.025 51.1133 794.101 51.2272 794.197 51.3231C794.293 51.419 794.407 51.4951 794.532 51.547C794.658 51.5989 794.792 51.6255 794.928 51.6255H799.934C800.209 51.6258 800.472 51.5172 800.667 51.3236C800.862 51.13 800.971 50.8671 800.972 50.5927V45.5844C800.971 45.31 800.862 45.0472 800.667 44.8536C800.472 44.6599 800.209 44.5514 799.934 44.5516Z" fill="#E6E6E6"/>
<path d="M698.521 46.4568H658.503C658.168 46.4568 657.848 46.5895 657.612 46.8256C657.375 47.0618 657.243 47.382 657.243 47.716C657.243 48.0499 657.375 48.3702 657.612 48.6063C657.848 48.8425 658.168 48.9751 658.503 48.9751H698.521C698.855 48.9751 699.176 48.8425 699.412 48.6063C699.648 48.3702 699.781 48.0499 699.781 47.716C699.781 47.382 699.648 47.0618 699.412 46.8256C699.176 46.5895 698.855 46.4568 698.521 46.4568Z" fill="#E6E6E6"/>
<path d="M591.256 218.563L567.325 217.807C564.006 217.702 560.273 217.707 557.906 219.422C555.219 221.367 555.626 224.814 557.857 227.05C560.088 229.286 563.65 230.563 567.146 231.602C585.72 237.12 606.277 238.24 626.237 236.991C646.197 235.743 665.746 232.213 685.198 228.696C687.043 228.362 689.134 227.882 689.887 226.599C690.615 225.358 689.662 223.861 688.183 223.058C686.704 222.256 684.828 221.986 683.019 221.747C650.25 217.443 617.126 216.499 584.164 218.929" fill="#00CC6A"/>
<path d="M634.253 200.168V194.509C630.144 194.567 615.44 194.467 611.604 194.509C611.319 214.288 609.569 210.413 625.783 210.49C626.528 210.493 627.242 210.791 627.768 211.318C628.294 211.845 628.59 212.559 628.591 213.304V213.389C628.591 214.135 628.295 214.85 627.767 215.378C627.239 215.905 626.523 216.202 625.777 216.202H611.604V221.861H634.253C634.285 221.842 634.231 216.396 634.254 216.202C635.211 199.807 633.316 205.703 619.548 205.046C618.932 205.014 618.351 204.747 617.927 204.3C617.502 203.853 617.266 203.26 617.266 202.643V202.573C617.266 201.935 617.52 201.323 617.971 200.872C618.423 200.421 619.035 200.168 619.673 200.168H634.253Z" fill="#C6C6C6"/>
<path d="M662.093 200.168V194.509C657.984 194.567 643.28 194.467 639.444 194.509C639.156 214.459 637.378 210.344 654.049 210.493C654.683 210.5 655.289 210.756 655.735 211.206C656.181 211.656 656.431 212.264 656.431 212.898C656.431 213.195 656.431 213.5 656.431 213.797C656.431 214.113 656.369 214.426 656.248 214.718C656.127 215.009 655.95 215.274 655.726 215.498C655.503 215.721 655.237 215.898 654.945 216.019C654.653 216.14 654.341 216.202 654.025 216.202H639.444V221.861H662.093C662.125 221.842 662.07 216.396 662.093 216.202C663.051 199.807 661.156 205.703 647.387 205.046C646.771 205.014 646.191 204.747 645.766 204.3C645.342 203.853 645.105 203.26 645.106 202.643V202.573C645.106 201.935 645.36 201.323 645.811 200.872C646.262 200.421 646.874 200.168 647.513 200.168H662.093Z" fill="#C6C6C6"/>
<path d="M604.998 200.168V194.509H582.349C582.333 199.556 582.36 212.916 582.349 218.088C577.909 225.6 603.131 220.399 604.999 221.863C604.998 221.861 604.998 216.202 604.998 216.202C587.765 216.112 587.332 219.336 587.886 203.738C587.92 202.78 588.324 201.873 589.013 201.207C589.703 200.541 590.624 200.168 591.583 200.167C596.565 200.168 604.998 200.168 604.998 200.168Z" fill="#C6C6C6"/>
<path d="M652.222 157.46L628.29 156.83C624.971 156.742 621.239 156.747 618.871 158.176C616.184 159.798 616.591 162.671 618.822 164.535C621.053 166.399 624.615 167.464 628.111 168.329C646.686 172.929 667.242 173.862 687.202 172.822C707.162 171.781 726.711 168.839 746.164 165.907C748.009 165.629 750.1 165.229 750.852 164.159C751.58 163.124 750.627 161.876 749.148 161.207C747.669 160.539 745.794 160.313 743.984 160.114C711.159 156.525 678.088 155.739 645.129 157.765" fill="#00CC6A"/>
<path d="M648.033 132.62C647.647 141.357 650.86 144.107 639.775 142.994C639.026 137.782 642.824 130.549 634.113 132.385C635.858 136.166 629.252 164.852 639.773 159.735C640.364 151.117 636.469 147.337 648.033 148.655C648.96 153.983 644.632 161.823 653.695 159.972C651.95 156.189 658.557 127.506 648.033 132.62Z" fill="#C6C6C6"/>
<path d="M706.072 132.62C706.849 133.1 698.951 141.45 698.781 142.134C698.544 141.55 691.006 133.381 691.916 132.621C681.427 127.44 687.964 156.292 686.252 159.974C686.254 159.972 691.916 159.972 691.916 159.972V142.053C699.875 152.781 698.397 150.976 706.072 141.526L706.072 159.972C716.561 165.155 710.024 136.299 711.736 132.619C711.734 132.62 706.072 132.62 706.072 132.62Z" fill="#C6C6C6"/>
<path d="M681.063 132.62H658.414C657.083 140.553 661.483 137.893 666.908 138.279L666.907 159.973H672.569V138.279C677.969 137.912 682.41 140.518 681.063 132.62Z" fill="#C6C6C6"/>
<path d="M722.115 154.313C720.807 147.141 720.807 139.792 722.115 132.62H716.453C716.485 136.206 716.443 150.674 716.446 157.29C716.446 158.004 716.729 158.689 717.234 159.194C717.739 159.699 718.424 159.983 719.138 159.984C724.843 159.992 735.734 159.95 739.102 159.973L739.102 154.313H722.115Z" fill="#C6C6C6"/>
<path d="M575.012 148.764H551.997C550.871 148.764 549.791 149.211 548.994 150.007C548.198 150.803 547.75 151.883 547.75 153.009C547.75 154.134 548.198 155.214 548.994 156.01C549.791 156.806 550.871 157.253 551.997 157.253H575.012C576.138 157.253 577.218 156.806 578.015 156.01C578.811 155.214 579.259 154.134 579.259 153.009C579.259 151.883 578.811 150.803 578.015 150.007C577.218 149.211 576.138 148.764 575.012 148.764H575.012Z" fill="white"/>
<path d="M783.674 269.08L779.002 269.08L776.78 251.07L783.675 251.07L783.674 269.08Z" fill="#FFB6B6"/>
<path d="M783.839 273.951L769.472 273.951V273.769C769.472 272.287 770.061 270.866 771.11 269.818C772.159 268.769 773.581 268.181 775.064 268.181H775.064L777.688 266.191L782.585 268.181L783.839 268.181L783.839 273.951Z" fill="#2F2E41"/>
<path d="M800.189 269.08L795.517 269.08L793.295 251.07L800.19 251.07L800.189 269.08Z" fill="#FFB6B6"/>
<path d="M800.354 273.951L785.987 273.951V273.769C785.987 272.287 786.576 270.866 787.625 269.818C788.674 268.769 790.096 268.181 791.579 268.181H791.579L794.204 266.191L799.1 268.181L800.354 268.181L800.354 273.951Z" fill="#2F2E41"/>
<path d="M772.042 170.948C772.042 170.948 767.547 184.746 768.376 186.562C769.206 188.378 770.622 186.963 769.206 188.378C767.79 189.793 766.555 188.289 767.88 190.691C769.206 193.094 771.214 212.872 772.098 213.83C772.981 214.787 774.195 214.813 773.116 215.743C772.037 216.673 770.622 214.787 772.037 216.673C773.453 218.56 777.209 262.076 777.209 262.076H784.547C784.547 262.076 786.375 259.971 785.34 258.6C784.306 257.23 785.431 256.702 785.34 255.787C785.249 254.872 785.593 252.9 785.657 252C785.721 251.1 786.961 229.657 783.982 217.27L789.415 193.685L792.131 222.191C792.131 222.191 789.104 246.101 792.131 253.788C792.131 253.788 789.69 255.819 790.773 256.996C791.855 258.173 792.799 257.23 791.855 258.173C790.912 259.117 793.271 262.418 793.271 262.418L801.292 261.946L805.833 217.27C805.833 217.27 806.598 212.611 805.833 211.813C805.067 211.014 805.067 213.844 805.067 211.014V207.242C805.067 207.242 808.489 184.037 808.43 182.671C808.37 181.304 802.708 171.401 802.708 171.401L772.042 170.948Z" fill="#2F2E41"/>
<path d="M795.767 115.143L784.054 114.338L780.549 119.861L772.108 123.291V150.499C772.986 153.134 773.44 155.891 773.453 158.668C773.421 164.088 772.027 170.474 772.509 171.872C777.228 185.548 803.18 171.872 803.18 171.872L802.708 157.253L803.349 124.214L798.045 119.986L795.767 115.143Z" fill="#E6E6E6"/>
<path d="M771.566 176.854L770.759 168.252L765.777 168.027L766.955 177.092C766.653 177.537 766.481 178.058 766.459 178.596C766.437 179.133 766.565 179.667 766.829 180.135C767.094 180.604 767.484 180.99 767.955 181.249C768.427 181.509 768.962 181.631 769.5 181.604C770.037 181.576 770.557 181.399 770.999 181.092C771.442 180.786 771.79 180.362 772.004 179.869C772.219 179.375 772.292 178.832 772.214 178.299C772.137 177.767 771.913 177.266 771.566 176.854L771.566 176.854Z" fill="#FFB6B6"/>
<path d="M774.018 122.566L773.88 122.589C772.595 122.807 771.383 123.334 770.349 124.125C769.314 124.916 768.488 125.948 767.942 127.13C766.515 130.213 761.883 150.481 763.914 153.538C765.489 155.909 765.106 155.446 764.366 157.234C763.625 159.023 762.433 157.114 763.41 159.952C764.387 162.79 765.461 162.386 764.554 163.482C763.647 164.579 762.717 164.364 763.599 166.2C764.481 168.037 764.337 168.657 764.504 169.348C764.671 170.04 764.526 174.904 764.526 174.904C764.526 174.904 769.847 174.501 772.495 175.766C772.495 175.766 771.017 170.853 771.853 170.066C772.688 169.28 773.69 169.185 772.975 168.04C772.259 166.895 770.637 166.847 772.403 166.275C774.169 165.703 773.6 155.449 773.6 155.449C776.508 147.838 775.359 135.318 774.018 122.566Z" fill="#E6E6E6"/>
<path d="M806.102 177.468L806.474 168.836L811.438 168.361L810.719 177.473C811.043 177.903 811.241 178.414 811.291 178.95C811.34 179.486 811.239 180.025 810.998 180.506C810.758 180.988 810.388 181.393 809.93 181.675C809.472 181.958 808.944 182.108 808.406 182.107C807.867 182.107 807.34 181.956 806.882 181.672C806.425 181.388 806.056 180.983 805.816 180.501C805.577 180.019 805.477 179.48 805.527 178.944C805.578 178.408 805.777 177.897 806.102 177.468Z" fill="#FFB6B6"/>
<path d="M800.913 123.372L801.052 123.389C802.346 123.541 803.583 124.007 804.656 124.745C805.73 125.483 806.607 126.471 807.212 127.624C808.792 130.632 813.792 151 812.568 153.796C811.426 156.403 811.473 155.762 812.303 157.51C813.133 159.259 814.227 157.293 813.395 160.177C812.562 163.06 811.469 162.71 812.43 163.759C813.391 164.809 814.31 164.547 813.522 166.426C812.733 168.305 812.908 168.916 812.776 169.616C812.645 170.315 813.035 175.166 813.035 175.166C813.035 175.166 807.7 175.031 805.12 176.428C805.12 176.428 806.347 171.447 805.473 170.703C804.599 169.96 803.594 169.915 804.25 168.736C804.907 167.556 806.525 167.426 804.732 166.945C802.94 166.463 802.99 156.193 802.99 156.193L800.913 123.372Z" fill="#E6E6E6"/>
<path d="M790.198 112.609C795.244 112.609 799.334 108.521 799.334 103.478C799.334 98.4347 795.244 94.3466 790.198 94.3466C785.152 94.3466 781.062 98.4347 781.062 103.478C781.062 108.521 785.152 112.609 790.198 112.609Z" fill="#FFB6B6"/>
<path d="M796.556 111.294C797.827 110.3 797.95 108.405 799.034 107.211C800.847 105.215 801.699 103.067 800.749 100.701C799.909 98.6083 800.088 96.0361 798.279 94.6892C799.167 94.3678 799.376 93.7002 798.592 93.6879C798.064 93.6796 796.093 94.6894 797.041 93.4314C797.989 92.1734 796.194 92.67 796.313 92.155C796.432 91.6401 797.193 91.3549 797.529 91.7631C797.245 91.4737 796.9 91.2528 796.518 91.1174C796.136 90.9819 795.728 90.9354 795.325 90.9815C794.923 91.0275 794.536 91.1648 794.194 91.383C793.853 91.6011 793.566 91.8943 793.355 92.2402C792.286 90.6397 791.152 89.5384 789.517 90.5541C787.911 91.5517 787.932 92.7848 786.205 92.4884C785.393 92.3491 785.316 93.8821 784.762 94.4908C784.505 94.8143 784.172 95.0686 783.792 95.2305C783.412 95.3924 782.998 95.4568 782.587 95.4177C781.778 95.2649 781.159 94.2567 781.612 93.5695L779.705 97.9192L778.936 96.9767C777.714 97.7724 778.115 99.8488 779.345 100.632C780.575 101.415 782.173 101.248 783.589 100.901C785.294 100.483 787.054 100.337 788.804 100.468C791.478 100.846 793.34 104.041 792.35 106.551C793.377 105.543 795.277 106.38 795.81 107.717C796.342 109.054 795.951 110.56 795.557 111.944" fill="#2F2E41"/>
</g>
<defs>
<clipPath id="clip0_59_215">
<rect width="327" height="249" fill="white" transform="translate(515 25)"/>
</clipPath>
</defs>
</svg>
