<svg width="453" height="486" viewBox="0 0 453 486" fill="none" xmlns="http://www.w3.org/2000/svg">
<rect width="453" height="486" fill="#D9D9D9"/>
<path d="M121.091 408V221.818H166.091V371.455H243.545V408H121.091ZM266.841 408V221.818H344.477C358.417 221.818 370.083 223.788 379.477 227.727C388.932 231.667 396.023 237.182 400.75 244.273C405.538 251.364 407.932 259.576 407.932 268.909C407.932 276 406.447 282.333 403.477 287.909C400.508 293.424 396.417 298 391.205 301.636C385.992 305.273 379.962 307.818 373.114 309.273V311.091C380.629 311.455 387.568 313.485 393.932 317.182C400.356 320.879 405.508 326.03 409.386 332.636C413.265 339.182 415.205 346.939 415.205 355.909C415.205 365.909 412.659 374.848 407.568 382.727C402.477 390.545 395.114 396.727 385.477 401.273C375.841 405.758 364.144 408 350.386 408H266.841ZM311.841 371.727H339.659C349.417 371.727 356.598 369.879 361.205 366.182C365.871 362.485 368.205 357.333 368.205 350.727C368.205 345.939 367.083 341.818 364.841 338.364C362.598 334.848 359.417 332.152 355.295 330.273C351.174 328.333 346.235 327.364 340.477 327.364H311.841V371.727ZM311.841 298.364H336.75C341.659 298.364 346.023 297.545 349.841 295.909C353.659 294.273 356.629 291.909 358.75 288.818C360.932 285.727 362.023 282 362.023 277.636C362.023 271.394 359.811 266.485 355.386 262.909C350.962 259.333 344.992 257.545 337.477 257.545H311.841V298.364Z" fill="black"/>
</svg>
